<?xml version="1.0" encoding="utf-8"?>
<!-- Generator: Adobe Illustrator 21.0.0, SVG Export Plug-In . SVG Version: 6.00 Build 0)  -->
<svg version="1.1" id="Capa_1" xmlns="http://www.w3.org/2000/svg" xmlns:xlink="http://www.w3.org/1999/xlink" x="0px" y="0px"
	 viewBox="0 0 182.5 182.5" style="enable-background:new 0 0 182.5 182.5;" xml:space="preserve">
<style type="text/css">
	.st0{fill:none;}
	.st1{fill:#FFFFFF;}
</style>
<g>
	<circle class="st0" cx="52" cy="56.6" r="6.8"/>
	<path class="st0" d="M120,67.1c-1.9-1.1-4.4-0.4-5.5,1.5c-0.1,0.1-6.2,10.5-22.3,10.5c-16.1,0-23.3-10.3-23.6-10.8
		c-1.2-1.8-3.7-2.3-5.5-1.1c-1.8,1.2-2.3,3.7-1.1,5.5c0.4,0.6,9.8,14.3,30.2,14.3c20.7,0,28.9-14,29.3-14.6
		C122.6,70.6,121.9,68.2,120,67.1z"/>
	<circle class="st0" cx="131.3" cy="56.6" r="6.8"/>
	<path class="st1" d="M165.7,23.6c-9.2-12.4-18.9-18.2-30.4-18.2c-7.5,0-14.7,2.4-21.7,4.7l-0.2,0.1c-7.5,2.5-14.5,4.8-22.2,4.8
		c-7.6,0-15.1-2.5-22.4-5c-7.1-2.4-14.5-4.8-21.9-4.8c-11.6,0-21,5.9-29.7,18.5c-13.6,19.8-5.9,41,0.4,58.2
		c2.8,7.6,5.4,14.8,5.4,20.2c0,27.9,5.9,75.1,27.9,75.1c15.1,0,19.7-17.5,23.8-33c4.4-16.3,8.1-27.9,17.1-27.9
		c7.7,0,10.6,7.5,14.7,25.4c3.5,15.7,7.9,35.2,26.5,35.2c25.9,0,27.9-57.2,27.9-74.8c0-5.1,2.5-12.3,5.2-19.8l0.1-0.3
		C172.2,64.5,179.9,42.8,165.7,23.6z M52,63.4c-3.7,0-6.8-3-6.8-6.8c0-3.7,3-6.8,6.8-6.8c3.7,0,6.8,3,6.8,6.8
		C58.7,60.4,55.7,63.4,52,63.4z M121.5,72.5c-0.3,0.6-8.6,14.6-29.3,14.6c-20.5,0-29.9-13.8-30.2-14.3c-1.2-1.8-0.7-4.3,1.1-5.5
		c1.8-1.2,4.3-0.7,5.5,1.1c0.3,0.4,7.5,10.8,23.6,10.8c16.1,0,22.3-10.4,22.3-10.5c1.1-1.9,3.5-2.6,5.5-1.5
		C121.9,68.2,122.6,70.6,121.5,72.5z M131.3,63.4c-3.7,0-6.8-3-6.8-6.8c0-3.7,3-6.8,6.8-6.8s6.8,3,6.8,6.8
		C138.1,60.4,135.1,63.4,131.3,63.4z"/>
</g>
</svg>
